<svg width="109" height="109" viewBox="0 0 109 109" fill="none" xmlns="http://www.w3.org/2000/svg">
<path d="M15.6888 37.659C20.7792 31.6791 26.3617 25.9642 32.5308 21.1008C36.8264 17.7135 38.3025 17.5432 40.6679 16.8998C41.3113 16.7295 41.8791 16.3321 42.4278 15.9347C65.4579 -0.320697 94.8084 11.2038 100.485 39.892C104.251 58.9291 94.5435 77.8338 77.8528 85.5546C77.5879 85.6871 77.1905 85.725 77.0581 85.9331C73.7464 91.1182 67.0096 93.1241 62.9032 94.146C62.0705 94.4488 61.4271 95.3192 60.6702 95.8869C60.0836 96.3222 59.4969 96.7953 58.8346 97.0981C37.1292 107.165 13.7964 93.6918 8.68704 71.3998C7.96794 68.2585 4.8077 49.297 15.6888 37.659ZM60.8973 84.3435C68.637 84.3057 73.6897 83.0378 78.2124 80.5588C99.9745 68.618 103.229 36.1829 84.0787 20.3439C73.103 11.2795 59.0617 9.74666 46.7235 18.4326C32.0577 28.746 26.7402 49.8836 34.953 65.8552C40.8572 77.3418 50.2244 83.6812 60.8973 84.3435ZM68.2964 89.2448C69.2426 88.9041 69.3751 88.6581 69.2237 88.5446C69.2237 88.5446 68.8263 88.5446 68.164 88.5635C51.1327 89.8503 38.3214 83.0757 30.733 67.8043C23.315 52.8925 25.1127 38.2456 33.8744 24.2232C33.1742 24.5639 32.6065 24.9802 32.0955 25.4533C20.2872 36.1451 16.8053 54.255 23.6178 69.7345C29.9004 84.0218 43.0902 92.4996 57.9263 91.4399C61.4082 91.1939 64.8334 90.0017 68.2964 89.2448ZM18.2813 40.1569C18.3002 39.6081 17.7893 40.2894 17.7136 40.384C17.4487 40.7435 17.1837 41.122 16.9567 41.5005C13.8343 46.7612 11.8851 52.4573 11.6202 58.5696C10.9957 72.4974 15.878 84.0408 27.6674 91.913C35.5018 97.1548 44.2067 98.2335 53.3089 95.3949C40.0056 94.0514 29.6355 87.8823 22.6337 76.4902C15.632 65.1361 14.5155 52.9493 18.2813 40.1569Z" fill="#12141D"/>
<path d="M75.2796 52.2866C77.891 52.3812 78.7426 53.7437 77.891 56.2038C75.7716 62.2594 69.8106 65.2114 63.7362 63.092C60.1407 61.8241 57.3211 59.5154 55.3719 56.2227C53.877 53.687 54.5393 52.2298 57.4725 52.0406C60.5381 51.8324 72.4221 52.1731 75.2796 52.2866ZM74.6929 55.2387C69.47 55.2387 64.3796 55.2387 59.2324 55.2387C64.4553 61.3132 72.1761 61.4267 74.6929 55.2387Z" fill="#12141D"/>
<path d="M53.9901 41.5568C54.009 44.5089 51.1705 47.196 48.067 47.1771C45.3609 47.1582 43.4685 44.717 43.4496 42.1245C43.4118 39.532 46.0611 36.9773 48.9753 36.9016C51.776 36.807 53.9901 38.8507 53.9901 41.5568ZM48.313 39.6834C46.9126 39.9104 46.4774 41.2351 46.5909 42.2381C46.7423 43.6952 47.8399 44.0547 48.5211 44.0736C49.1646 44.0926 50.4324 43.4492 50.6974 42.2002C51.038 40.9323 50.3189 39.2103 48.313 39.6834Z" fill="#12141D"/>
<path d="M90.1529 42.3527C90.115 45.2102 88.0902 47.3107 85.3841 47.2918C82.4699 47.2729 80.3694 44.9074 80.464 41.7472C80.5397 39.0032 82.5835 36.8838 85.1192 36.9406C87.7496 37.0163 90.1907 39.6277 90.1529 42.3527ZM87.5414 42.277C87.5414 40.8199 86.7656 39.8359 85.5545 39.8359C84.8164 39.8359 83.5675 40.4036 83.5675 41.9553C83.5675 44.6614 85.5545 44.51 85.5545 44.51C86.6142 44.4722 87.5414 44.0369 87.5414 42.277Z" fill="#12141D"/>
</svg>
