<svg width="40" height="41" viewBox="0 0 40 41" fill="none" xmlns="http://www.w3.org/2000/svg">
<path d="M39.6854 15.4178L33.0068 22.0964L15.206 39.8963C14.7869 40.3163 14.106 40.3154 13.686 39.8963L11.142 37.3514C13.4287 35.0648 13.4296 31.3564 11.142 29.0689C11.04 28.967 10.9342 28.8689 10.8248 28.7749C8.52388 26.7867 5.04342 26.885 2.85954 29.0689L0.314649 26.5249C-0.104436 26.1049 -0.105329 25.424 0.314649 25.0049L6.99409 18.3264L24.794 0.525586C25.2131 0.105608 25.894 0.106502 26.314 0.525586L28.858 3.07047C26.5713 5.35712 26.5713 9.06544 28.858 11.353C31.1455 13.6405 34.8538 13.6396 37.1405 11.353L39.6854 13.897C40.1044 14.3169 40.1053 14.9978 39.6854 15.4178Z" fill="#FFC035"/>
<path d="M19.4624 31.1521C19.4155 31.1522 19.369 31.1429 19.3256 31.125C19.2822 31.107 19.2428 31.0806 19.2096 31.0474L6.74164 18.5794C6.67454 18.5123 6.6368 18.4214 6.63672 18.3265C6.63664 18.2317 6.67421 18.1406 6.74119 18.0735C6.7743 18.0402 6.81364 18.0139 6.85696 17.9958C6.90027 17.9778 6.94671 17.9685 6.99362 17.9685C7.04053 17.9685 7.08699 17.9777 7.13034 17.9956C7.17368 18.0135 7.21307 18.0398 7.24624 18.073L19.7151 30.542C19.7651 30.592 19.7991 30.6556 19.8129 30.725C19.8267 30.7943 19.8196 30.8661 19.7926 30.9314C19.7655 30.9968 19.7197 31.0526 19.6609 31.0918C19.6022 31.1311 19.5331 31.1521 19.4624 31.1521ZM33.0071 22.4541C32.9602 22.4541 32.9137 22.4449 32.8703 22.427C32.827 22.409 32.7876 22.3826 32.7544 22.3494L20.2856 9.88058C20.2518 9.84753 20.2249 9.8081 20.2064 9.76458C20.1879 9.72106 20.1783 9.67431 20.178 9.62704C20.1778 9.57976 20.1869 9.53291 20.2048 9.48918C20.2228 9.44545 20.2493 9.40572 20.2827 9.37229C20.3161 9.33886 20.3558 9.31239 20.3996 9.29442C20.4433 9.27644 20.4901 9.26732 20.5374 9.26758C20.5847 9.26784 20.6314 9.27748 20.675 9.29593C20.7185 9.31439 20.7579 9.34129 20.791 9.37509L33.2598 21.844C33.2931 21.8771 33.3194 21.9165 33.3374 21.9599C33.3554 22.0033 33.3646 22.0497 33.3646 22.0967C33.3646 22.1436 33.3554 22.1901 33.3374 22.2334C33.3194 22.2768 33.2931 22.3162 33.2598 22.3494C33.2267 22.3826 33.1873 22.409 33.1439 22.4269C33.1006 22.4449 33.0541 22.4541 33.0071 22.4541Z" fill="#C98B0E"/>
<path opacity="0.2" d="M39.6847 15.4184L33.0062 22.0969L15.2054 39.8968C14.7863 40.3168 14.1054 40.3159 13.6854 39.8968L11.1414 37.3519C13.4281 35.0653 13.429 31.357 11.1414 29.0694C11.0394 28.9675 10.9336 28.8694 10.8242 28.7755L28.8574 11.3535C31.1449 13.6411 34.8532 13.6402 37.1399 11.3535L39.6847 13.8975C40.1038 14.3175 40.1047 14.9984 39.6847 15.4184Z" fill="url(#paint0_linear_559_17668)"/>
<defs>
<linearGradient id="paint0_linear_559_17668" x1="19.6938" y1="19.9059" x2="27.4455" y2="27.6576" gradientUnits="userSpaceOnUse">
<stop stop-color="#B25E0F"/>
<stop offset="1" stop-color="#FF9704" stop-opacity="0"/>
</linearGradient>
</defs>
</svg>
