<svg width="60" height="60" viewBox="0 0 60 60" fill="none" xmlns="http://www.w3.org/2000/svg">
<circle cx="30" cy="30" r="30" fill="#F7EA68"/>
<path d="M24.2794 12.8349C24.4024 21.4524 24.4846 30.0712 24.5254 38.6901C24.5309 39.8013 26.2586 39.804 26.2531 38.6901C26.2125 30.0711 26.1305 21.4524 26.007 12.8342C25.9912 11.7237 24.2635 11.7202 24.2794 12.8342V12.8349Z" fill="#12141D"/>
<path d="M25.0482 17.0517C26.2113 18.0192 26.4414 19.2651 28.0986 19.8145C29.5747 20.3045 31.623 19.5492 32.9097 18.8602C35.0907 17.6923 38.5211 12.7879 41.3682 14.9502C43.0434 16.2217 42.4007 18.6715 42.4615 20.3881C42.5188 21.9796 42.825 23.4599 42.646 25.0527L44.2562 24.6174C42.9763 22.9436 40.993 21.5449 38.7851 22.2291C37.7036 22.5642 36.716 23.408 35.8723 24.1475C33.6588 26.0879 29.0377 30.0477 26.4525 25.7673C25.8782 24.8164 24.3835 25.6844 24.9605 26.6394C26.458 29.1182 29.0529 29.6503 31.7619 28.8805C33.1177 28.4956 34.5316 27.7928 35.6249 26.9041C37.7644 25.1647 39.9951 21.8684 42.7642 25.4888C43.2963 26.1861 44.2741 25.9387 44.3743 25.0534C44.5706 23.3023 44.205 21.5933 44.196 19.8373C44.1898 18.5464 44.4013 17.042 44.0336 15.7719C43.6038 14.2895 42.2825 12.7699 40.6592 12.5426C38.4796 12.2364 36.0754 14.1423 34.5537 15.4146C32.9622 16.7449 30.5152 19.015 28.2326 17.9148C27.2942 17.4629 27.0233 16.4574 26.27 15.8306C25.42 15.1243 24.192 16.3406 25.0482 17.0517ZM27.5575 44.0167C28.0993 43.996 33.0873 43.4466 31.558 45.7492C31.435 45.9344 28.0474 45.7817 27.7779 45.7837C24.8568 45.8114 21.8763 45.9959 18.9587 45.8653C16.287 45.7457 18.4818 46.4962 18.0734 45.705C17.1771 43.9676 21.0705 44.0934 21.5149 44.0713C23.7995 43.958 25.9991 44.6034 28.2596 44.1936C29.3521 43.996 28.8898 42.3305 27.8007 42.5282C24.7739 43.0769 19.8467 41.0645 17.1046 43.1418C16.2981 43.7527 15.8178 45.5052 16.0652 46.4451C16.587 48.4312 20.0941 47.5826 21.4789 47.5701C25.201 47.5356 29.6887 48.1782 33.3181 47.3745C33.6146 47.3089 33.8357 47.0497 33.9214 46.7713C35.3996 41.9753 30.6555 42.1667 27.5568 42.2891C26.449 42.3333 26.4442 44.0609 27.5568 44.0167H27.5575Z" fill="#12141D"/>
<path d="M30.4308 42.0942C30.2235 40.9201 29.9817 40.3727 29.2837 39.739C28.2243 38.7792 27.2022 38.896 25.7427 38.8117C24.1498 38.7197 23.2846 38.6569 21.9032 39.2843C21.3794 39.5221 20.7809 39.5034 20.425 40.0327C20.0726 40.5566 20.1182 41.5095 20.045 42.0907C19.9068 43.1909 21.6358 43.1812 21.7726 42.0907C22.0428 39.9388 24.8444 40.4895 26.4082 40.5773C26.7448 40.5966 27.5236 40.4944 27.8062 40.6533C27.941 40.7293 28.0039 41.1184 28.1676 41.2269C28.9347 41.7376 28.5892 41.5607 28.7647 42.553C28.9582 43.6456 30.6237 43.1826 30.4308 42.0935V42.0942Z" fill="#12141D"/>
</svg>
