<svg width="60" height="60" viewBox="0 0 60 60" fill="none" xmlns="http://www.w3.org/2000/svg">
<circle cx="30" cy="30" r="30" fill="#F7EA68"/>
<path d="M33.9203 39.1081C31.293 39.0137 28.6632 39.0041 26.0353 39.0793C24.9096 39.1116 24.9054 40.8638 26.0353 40.8316C28.6636 40.7566 31.292 40.7657 33.9203 40.8596C35.0481 40.901 35.046 39.1487 33.9203 39.1074V39.1081Z" fill="#12141D"/>
<path d="M34.806 39.3153C35.645 37.0304 36.758 35.5214 38.4248 33.8063C39.4572 32.7444 40.2576 31.4674 40.8555 30.1182C42.014 27.5024 42.5579 24.2965 42.1612 21.4523C41.2872 15.1779 35.3612 12.2594 29.6559 12.0113C23.4796 11.7449 19.6128 16.2412 17.597 21.7334C16.7033 24.1669 16.8253 26.913 17.8801 29.2799C18.5852 30.8611 19.5945 31.904 20.8519 33.0591C22.9168 34.9543 24.1812 37.1026 25.0398 39.8024C25.3797 40.8734 27.0724 40.4157 26.7289 39.337C26.0512 37.2028 25.0818 34.927 23.6142 33.2014C21.6797 30.9256 19.5111 30.0074 18.8859 26.6817C18.2726 23.419 20.0298 20.0442 21.9348 17.4817C23.9184 14.8134 26.3876 13.6668 29.6552 13.7649C36.9648 13.9836 41.7127 19.2214 40.1553 26.5772C39.4586 29.8693 37.7582 31.6475 35.5294 34.0032C34.1353 35.4758 33.8136 36.9491 33.1162 38.8499C32.7265 39.9104 34.4199 40.3673 34.8053 39.316L34.806 39.3153Z" fill="#12141D"/>
<path d="M30.1405 27.2012C32.0883 26.2971 35.0643 27.5012 35.3993 24.5673C35.6292 22.5592 34.6844 21.06 32.5929 20.9353C30.1678 20.7902 29.4368 22.4443 29.1305 24.5301C28.9272 25.9165 29.0513 25.4672 28.0967 25.2682C27.7336 25.1925 27.0523 25.3775 26.7692 25.2184C25.4585 24.4825 26.1138 22.6959 27.3565 22.6412C28.4149 22.5943 28.3294 22.855 28.5775 23.811C28.8606 24.9016 30.5512 24.439 30.2666 23.3449C30.0304 22.4317 29.9912 21.2591 28.9987 20.8995C28.1373 20.5876 26.437 20.8462 25.6036 21.2661C23.9278 22.1107 23.7757 25.5892 25.3415 26.5971C25.7115 26.8354 26.1293 26.9111 26.561 26.9524C27.325 27.0253 27.9901 27.2938 28.7352 27.415C29.8181 27.5902 30.3662 26.9664 30.6563 25.9621C30.8463 25.3053 30.6844 24.2295 31.0271 23.6729C31.763 22.4779 33.9428 22.3265 33.6618 24.1278C33.4788 25.3004 32.1177 24.9325 31.3068 25.0355C30.5638 25.1301 29.9281 25.3761 29.2567 25.6887C28.2347 26.1632 29.1235 27.6736 30.1405 27.2012ZM30.6577 39.4788V39.2454C30.6577 38.1177 28.9055 38.1163 28.9055 39.2454V39.4788C28.9055 40.6073 30.6577 40.6087 30.6577 39.4788Z" fill="#12141D"/>
<path d="M30.5649 38.6064C30.4508 34.6549 30.4274 30.7013 30.4948 26.7487C30.5144 25.6202 28.7622 25.6202 28.7426 26.7487C28.6753 30.7017 28.6984 34.6541 28.8127 38.6064C28.8449 39.7313 30.5971 39.7362 30.5649 38.6064ZM33.9838 42.3317C31.08 42.0709 28.2197 42.1768 25.3376 42.6001C24.226 42.7634 24.6984 44.4519 25.8037 44.2893C28.5232 43.8897 31.2476 43.8379 33.9831 44.0839C35.1067 44.1848 35.0997 42.4319 33.9831 42.3317H33.9838Z" fill="#12141D"/>
<path d="M31.8985 43.6297C31.7135 44.9425 30.5865 45.2544 29.4517 45.335C28.6639 45.391 27.4051 44.6502 27.5243 43.7538C27.6721 42.6393 25.9185 42.6498 25.772 43.7538C25.6094 44.9705 26.1813 45.2565 26.8815 46.0688C27.5425 46.8363 27.9735 47.2281 29.0613 47.151C31.0231 47.0108 33.2653 46.3898 33.5884 44.0951C33.744 42.9926 32.0555 42.516 31.8992 43.6297H31.8985Z" fill="#12141D"/>
</svg>
