<svg width="60" height="60" viewBox="0 0 60 60" fill="none" xmlns="http://www.w3.org/2000/svg">
<circle cx="30" cy="30" r="30" fill="#F7EA68"/>
<path d="M15.7088 41.5076C16.1057 41.7318 16.5415 41.7373 16.9363 41.5048C17.9014 40.9373 17.0268 39.432 16.0583 40.0015L16.0917 39.9778H16.5548L16.5875 40.005C15.6106 39.4542 14.7326 40.9568 15.7088 41.5083V41.5076Z" fill="#12141D"/>
<path d="M17.4403 41.2129C18.5369 39.0593 22.6039 40.7318 23.6866 41.763C23.9707 42.0331 26.8637 45.5772 26.3262 45.7387C25.2553 46.059 25.7114 47.7391 26.7892 47.4167C30.4676 46.3159 26.1117 41.6007 24.7011 40.3196C22.629 38.4376 17.5009 37.2643 15.937 40.3349C15.4302 41.3306 16.9313 42.2128 17.441 41.2129H17.4403Z" fill="#12141D"/>
<path d="M25.6908 45.9985L25.633 46.0563C24.84 46.8501 26.0703 48.0811 26.864 47.2873L26.9218 47.2295C27.7156 46.4358 26.4846 45.2048 25.6908 45.9985Z" fill="#12141D"/>
<path d="M25.8409 45.7553L20.7024 45.8527C18.9847 45.8855 16.7016 45.5297 15.0493 45.9607C14.6803 45.8548 14.3948 45.9607 14.195 46.2809C13.7285 46.7871 13.7139 46.6743 14.1532 45.9419C14.1936 45.6397 14.2967 45.1899 14.3607 44.9142C14.8084 42.9813 15.589 41.7677 17.4431 40.8771C18.4527 40.3918 17.5706 38.8907 16.5644 39.3739C15.2819 39.9901 14.2319 40.8618 13.5036 42.0991C12.7795 43.3294 12.902 44.9051 12.1222 46.047C11.96 46.2865 11.9586 46.6876 12.1222 46.9264C13.0503 48.2793 15.1768 47.6993 16.5909 47.6714L25.8409 47.4953C26.9598 47.4744 26.9633 45.7337 25.8409 45.7546V45.7553Z" fill="#12141D"/>
<path d="M18.5847 38.7025C18.71 38.2458 18.6501 37.9039 18.4364 37.4854C18.2985 37.216 18.0242 36.9799 17.9483 36.6778C17.8703 36.3679 17.949 35.8151 17.9504 35.4955C17.9539 34.7797 17.8459 33.9219 18.7358 33.7736C19.4119 33.6608 20.0907 33.8175 20.7814 33.6685C21.8753 33.431 21.4123 31.7523 20.3184 31.9897C18.7685 32.3253 16.9631 31.7008 16.3691 33.7186C16.1296 34.5346 16.202 35.444 16.209 36.283C16.2111 36.6903 16.1777 37.1234 16.3274 37.5126C16.3622 37.6024 16.8886 38.3022 16.9053 38.2402C16.6093 39.3215 18.2881 39.7832 18.5847 38.7025Z" fill="#12141D"/>
<path d="M21.1384 33.4653C22.2998 33.5356 22.2016 35.2909 22.1981 36.0505C22.196 36.4648 22.2218 36.6194 22.0164 36.8958C21.7456 37.26 21.1092 37.5615 20.7422 37.8302C19.8475 38.4854 20.7151 39.997 21.6209 39.3335C22.2705 38.8572 23.285 38.3719 23.7042 37.6485C24.1373 36.9007 23.9618 35.717 23.9061 34.9066C23.7947 33.2982 22.9306 31.8332 21.1384 31.7246C20.0195 31.657 20.0237 33.3977 21.1384 33.4653Z" fill="#12141D"/>
<path d="M23.9346 37.9926C25.2401 36.7253 28.358 36.4733 30.043 36.4844C32.5858 36.5011 34.6496 37.8603 36.6904 39.2048C37.6282 39.8224 38.5007 38.3156 37.5684 37.7008C34.9991 36.0089 32.4326 34.5237 29.2618 34.7911C27.0246 34.9798 24.3837 35.1302 22.7036 36.7615C21.8987 37.5442 23.1304 38.7738 23.9346 37.9926Z" fill="#12141D"/>
<path d="M37.0344 37.1331C35.5123 35.1279 38.4415 33.6364 40.1349 33.7123C41.1243 33.7569 41.1236 34.9844 41.1271 35.7991C41.1306 36.6541 41.1299 37.8503 40.74 38.6169C40.2317 39.6126 41.7335 40.4948 42.2425 39.4956C42.943 38.1198 43.0196 36.1033 42.7745 34.5987C42.4974 32.8963 41.714 31.8888 39.9197 31.9737C38.4534 32.0441 36.462 32.5579 35.63 33.8641C34.8216 35.1313 34.5786 36.7565 35.5311 38.0111C36.1995 38.8919 37.7125 38.0258 37.0344 37.1331Z" fill="#12141D"/>
<path d="M46.0304 45.4067C43.5433 46.002 41.0437 46.2004 38.4918 46.1747C37.4084 46.1628 35.5612 46.4114 34.5537 46.0145C33.2892 46.2666 32.987 45.6504 33.6485 44.1645C33.8579 43.7492 34.1296 43.3683 34.4541 43.0352C35.7018 41.4908 37.611 40.0272 39.5898 39.8351C42.5511 39.5468 44.5334 43.0978 45.3641 45.3983C45.7414 46.4448 47.4243 45.9936 47.0421 44.936C46.389 43.1243 46.1669 42.311 44.7841 40.8753C43.6143 39.661 42.5281 38.5309 40.8383 38.1271C37.8554 37.4148 34.8461 39.7432 33.065 41.9629C31.8605 43.4634 30.1602 46.7268 32.8805 47.6069C34.773 48.2196 37.501 47.9383 39.4763 47.9181C41.8569 47.8938 44.1783 47.6396 46.4934 47.0847C47.5824 46.8236 47.1208 45.1449 46.0304 45.4067ZM28.6674 19.696C28.5392 18.8284 27.7316 18.3932 27.5526 17.5716C27.2915 16.3747 28.0115 15.2697 29.1401 14.8736C29.5983 14.7134 30.1602 14.7078 30.6441 14.7357C31.5151 14.7872 31.7442 15.1883 31.7052 15.9799C31.6425 17.2437 31.7526 18.5715 30.7409 19.4892C29.9095 20.2439 31.144 21.4722 31.9719 20.7202C33.4285 19.3973 33.5294 17.2674 33.4717 15.4076C33.4111 13.4594 31.7094 12.9435 30.0244 13.0048C28.4849 13.0605 26.9079 13.8285 26.119 15.2245C25.7137 15.9417 25.7151 16.8656 25.8231 17.6615C25.8836 18.1147 25.9902 18.5381 26.2297 18.9335C26.4929 19.368 26.9106 19.625 26.99 20.1597C27.1536 21.264 28.831 20.7947 28.668 19.6967L28.6674 19.696Z" fill="#12141D"/>
<path d="M30.6491 20.7534C32.254 22.3396 35.0837 22.4983 35.4228 25.2242C35.6435 26.9921 34.4814 26.6516 33.0011 26.6836C31.6336 26.7136 30.2661 26.7338 28.8993 26.7449C27.5681 26.7553 26.1184 26.9078 24.7969 26.7484C22.6224 26.4852 24.3687 26.9447 24.4035 25.9428C24.5003 23.1786 27.6836 21.4762 30.1338 21.3119C31.2458 21.2373 31.2548 19.496 30.1338 19.5712C28.2664 19.6965 26.6915 20.3949 25.1527 21.4553C23.554 22.5568 23.4015 23.5009 22.6851 25.1421C22.3091 26.0027 21.4875 26.9134 22.2193 27.8645C23.1133 29.0259 25.6867 28.4953 26.8481 28.4939C29.5817 28.4919 32.3188 28.4675 35.0509 28.3728C36.087 28.3366 37.1634 28.4403 37.5102 27.2448C37.882 25.9616 36.903 23.8365 36.2569 22.7685C35.1456 20.9345 33.2991 20.9247 31.8801 19.5231C31.0822 18.7349 29.8505 19.9646 30.6491 20.7534Z" fill="#12141D"/>
<path d="M28.5619 28.0881C29.0966 29.2202 28.6601 30.704 28.55 31.88C28.4331 33.1242 28.4108 34.3448 28.5326 35.5897C28.6406 36.694 30.382 36.7052 30.2733 35.5897C30.1132 33.9605 30.2267 32.3632 30.4154 30.7402C30.5637 29.4674 30.6201 28.3854 30.0651 27.2101C29.5875 26.197 28.0863 27.0799 28.5619 28.0881Z" fill="#12141D"/>
</svg>
