<svg width="80" height="24" viewBox="0 0 80 24" fill="none" xmlns="http://www.w3.org/2000/svg">
<path d="M37.043 24C38.2521 24 39.3121 23.7815 40.2229 23.3446C41.1337 22.9077 41.8482 22.3069 42.3664 21.5423C42.8847 20.7776 43.1438 19.896 43.1438 18.8973C43.1438 16.5722 41.7462 14.9649 38.951 14.0754L35.7239 13.0689C35.0958 12.8661 34.6168 12.5852 34.287 12.2263C33.973 11.8518 33.8159 11.4226 33.8159 10.9389C33.8159 10.2991 34.0593 9.78414 34.5461 9.39402C35.0487 8.9883 35.7082 8.78544 36.5248 8.78544C37.4356 8.78544 38.2364 9.02731 38.9274 9.51105C39.6183 9.97919 40.1366 10.6502 40.482 11.5241L43.1202 10.3537C42.6491 9.04291 41.8247 7.9896 40.6469 7.19376C39.4849 6.39792 38.1108 6 36.5248 6C35.3784 6 34.3577 6.21847 33.4626 6.6554C32.5832 7.07672 31.8923 7.6697 31.3898 8.43433C30.9029 9.19896 30.6595 10.0806 30.6595 11.0793C30.6595 12.2185 31.005 13.2094 31.696 14.052C32.3869 14.8791 33.4155 15.5111 34.7817 15.948L38.1501 17.0247C38.7625 17.2276 39.2179 17.4928 39.5163 17.8205C39.8303 18.1482 39.9874 18.5696 39.9874 19.0845C39.9874 19.7243 39.7283 20.2393 39.2101 20.6294C38.7075 21.0195 38.0402 21.2146 37.2079 21.2146C36.2029 21.2146 35.2999 20.9337 34.499 20.3719C33.6982 19.7945 33.0857 19.0065 32.6617 18.0078L30 19.1547C30.3141 20.1222 30.8087 20.9727 31.484 21.7061C32.1749 22.4239 32.9915 22.9857 33.9337 23.3914C34.8916 23.7971 35.928 24 37.043 24Z" fill="#12141D"/>
<path d="M49.5408 24C51.2054 24 52.5402 23.4538 53.5452 22.3615V23.7191H56.466V15.2458C56.466 14.3563 56.2383 13.5683 55.7829 12.8817C55.3275 12.1951 54.6994 11.6645 53.8985 11.29C53.1134 10.8999 52.1947 10.7048 51.1426 10.7048C49.8549 10.7048 48.7085 11.0091 47.7035 11.6177C46.6985 12.2263 46.0076 13.0299 45.6307 14.0286L48.1511 15.2458C48.3866 14.6684 48.7557 14.2081 49.2582 13.8648C49.7607 13.5059 50.3496 13.3264 51.0248 13.3264C51.7315 13.3264 52.2968 13.5137 52.7208 13.8882C53.1605 14.2471 53.3803 14.6996 53.3803 15.2458V15.6671L49.5644 16.2757C48.0569 16.5254 46.9419 17.0013 46.2195 17.7035C45.4972 18.4057 45.136 19.2874 45.136 20.3485C45.136 21.472 45.5365 22.3615 46.3373 23.0169C47.1382 23.6723 48.206 24 49.5408 24ZM48.3395 20.2315C48.3395 19.342 48.9441 18.7802 50.1533 18.5462L53.3803 18.0078V18.5228C53.3803 19.3966 53.0741 20.1378 52.4617 20.7464C51.8649 21.355 51.0798 21.6593 50.1061 21.6593C49.5879 21.6593 49.1639 21.5345 48.8342 21.2848C48.5044 21.0195 48.3395 20.6684 48.3395 20.2315Z" fill="#12141D"/>
<path d="M59.318 23.7191H62.4038V16.6268C62.4038 15.6593 62.6707 14.9103 63.2046 14.3797C63.7543 13.8336 64.4609 13.5605 65.3246 13.5605H66.4317V10.8453H65.6779C64.8928 10.8453 64.2018 10.9857 63.6051 11.2666C63.0084 11.5475 62.5451 12.0546 62.2153 12.788V10.9857H59.318V23.7191Z" fill="#12141D"/>
<path d="M68.1282 23.7191H71.2139V19.8335L72.8628 18.0546L76.4667 23.7191H80L75.1712 16.1118L79.9058 10.9857H76.0663L71.2139 16.0416V6H68.1282V23.7191Z" fill="#12141D"/>
<path d="M19.7161 23.7161C19.7161 12.8722 10.8438 4 0 4C0 4 3.52073 16.2521 0 23.7161C7.7456 23.7161 19.7161 23.7161 19.7161 23.7161Z" fill="#4F46E5"/>
<path d="M22.3452 23.7163C22.3452 16.4871 16.4304 10.5723 9.20117 10.5723C9.20117 10.5723 11.5483 18.7404 9.20117 23.7163C14.3649 23.7163 22.3452 23.7163 22.3452 23.7163Z" fill="#2DD4BF"/>
</svg>
