<svg width="316" height="329" viewBox="0 0 316 329" fill="none" xmlns="http://www.w3.org/2000/svg">
<g clip-path="url(#clip0_559_17888)">
<path d="M214.985 245.817C220.764 249.223 225.657 251.671 229.977 254.845C232.27 256.535 235.224 259.484 235.106 261.736C234.982 264.081 231.933 267.121 229.441 268.312C222.159 271.808 214.522 274.755 206.904 277.424C205.258 278.002 202.269 277.74 200.861 275.943C199.17 274.463 202.502 271.106 204.152 270.193C210.478 266.763 217.173 263.937 224.292 260.636C220.236 258.245 216.819 256.329 213.451 254.248C204.46 248.66 203.845 242.397 212.068 235.829C223.692 226.525 235.576 217.52 247.358 208.358C248.779 207.26 250.127 206.12 251.497 204.945C253.828 203.368 253.231 202.823 251 203.491C246.723 204.84 242.431 206.132 238.154 207.481C230.556 209.871 222.972 212.318 215.358 214.651C213.641 215.186 211.705 215.352 210.036 215.722C207.097 216.36 204.517 214.501 203.274 212.753C202.219 211.261 201.472 209.08 203.613 205.94C208.17 199.437 213.209 193.266 218.262 187.151C229.636 173.348 241.097 159.643 252.122 145.199C246.471 148.06 240.748 150.878 235.184 153.838C222.873 160.367 210.714 167.131 198.323 173.468C194.082 175.66 189.214 179.079 184.591 174.614C180.248 170.411 183.089 165.507 184.806 161.199C190.258 147.678 196.018 134.291 201.635 120.819C202.196 119.456 202.556 118.024 203.498 115.194C195.439 119.925 188.251 123.669 181.627 128.181C167.675 137.66 153.955 147.567 140.155 157.281C130.967 163.764 125.898 161.696 124.529 150.395C122.794 136.267 121.552 122.042 120.046 107.855C119.76 105.22 119.19 102.659 118.485 98.5202C116.818 101.02 115.757 102.329 115.04 103.793C106.748 120.573 98.4924 137.375 90.2156 154.212C88.0427 158.639 86.564 164.103 80.8468 164.942C74.8654 165.818 72.444 160.571 69.483 156.65C66.4206 152.572 63.5147 148.394 59.4171 144.432C59.3884 148.912 59.3809 153.357 59.3522 157.838C59.3242 161.497 59.575 165.175 59.1963 168.773C59.0707 170.053 57.3516 172.232 56.5362 172.138C55.0701 172 53.5977 171.954 52.4841 169.412C51.9969 168.351 51.7994 166.881 51.7962 165.573C51.6105 156.613 51.1819 147.656 51.6111 138.72C51.7545 136.096 53.7832 132.407 55.9262 131.396C57.7203 130.568 61.7647 132.322 63.4872 134.159C67.9117 138.797 71.6132 144.17 75.598 149.226C76.9045 150.867 78.1687 152.579 79.9521 154.887C82.0571 150.904 83.7602 147.604 85.5203 144.288C94.6151 126.965 103.71 109.643 112.841 92.3409C113.482 91.171 114.23 90.0646 115.065 89.0575C117.968 85.69 122.42 85.6046 124.601 89.4532C126.601 92.9531 128.17 97.021 128.717 101.018C130.706 115.781 132.204 130.639 133.872 145.454C134.042 147.053 134.29 148.602 134.587 150.808C144.629 143.861 153.971 137.033 163.647 130.789C175.2 123.33 186.97 116.24 198.777 109.172C202.361 107.028 206.308 103.695 210.636 107.02C214.964 110.344 213.668 115.335 212.15 119.47C207.366 132.514 202.088 145.412 197.031 158.343C196.197 160.415 195.342 162.523 195.251 165.468C203.643 161.32 212.036 157.173 220.413 152.969C232.734 146.833 245.004 140.618 257.34 134.539C260.279 133.079 263.623 131.18 266.506 134.33C269.441 137.558 267.875 141.036 265.718 143.876C256.906 155.466 248.037 167.07 238.924 178.433C231.55 187.582 223.788 196.404 216.566 206.609C222.627 204.86 228.592 202.862 234.726 201.398C242.457 199.521 250.269 197.837 258.12 196.66C260.518 196.284 264.799 197.307 265.354 198.746C266.143 200.855 265.159 204.822 263.457 206.479C257.174 212.546 250.38 218.167 243.542 223.616C234.653 230.904 225.497 237.745 214.985 245.817Z" fill="#12141D"/>
</g>
<defs>
<clipPath id="clip0_559_17888">
<rect width="240" height="240" fill="white" transform="translate(121.838) rotate(30.5079)"/>
</clipPath>
</defs>
</svg>
