<svg width="64" height="69" viewBox="0 0 64 69" fill="none" xmlns="http://www.w3.org/2000/svg">
<path fill-rule="evenodd" clip-rule="evenodd" d="M25.1982 13.7882C25.0107 12.6757 24.8695 11.5758 24.7782 10.4758C24.6407 8.82582 24.7257 7.16321 24.677 5.51321C24.6557 4.81321 24.572 2.98823 24.6057 2.72573C24.912 0.43823 26.7582 0.0881876 27.2982 0.0256876C27.5594 -0.0118124 30.2419 -0.311678 30.8207 2.66332C31.5307 6.30082 31.7582 9.96327 31.507 13.5508C32.0932 16.6008 33.0957 19.6382 34.4195 22.3882C39.687 33.3257 49.7244 34.3882 60.5994 34.2882C62.2719 34.2632 63.6607 35.5757 63.7482 37.2382C63.8357 38.9132 62.5907 40.3632 60.9257 40.5132C54.847 41.1007 44.0619 45.9758 40.3332 51.0508C39.5532 52.1133 39.0994 54.6758 38.4994 57.1883C37.6619 60.6758 36.6657 64.1258 35.5495 65.5758C35.382 65.8008 33.3457 68.1008 32.7382 68.4383C31.2782 69.2383 30.1095 68.7757 29.4457 68.3507C28.782 67.9257 28.0307 67.0882 27.7307 65.7007C27.417 64.2507 27.682 61.2757 27.6332 60.6382C27.4557 58.3257 26.9932 53.7882 26.0495 49.8882C25.5407 47.7882 24.9982 45.8507 24.1007 44.8882C20.7782 41.3257 15.4657 41.8508 10.992 42.4383C10.4782 42.5008 9.96448 42.5758 9.45197 42.6383C7.63073 43.1758 5.69693 43.5757 3.65318 43.8132C0.566927 44.1757 0.0594618 41.3382 0.0319618 41.1507C-0.0255382 40.7382 -0.239311 38.6133 2.08694 37.7633C2.34069 37.6758 4.21321 37.2632 4.93446 37.1007C5.93946 36.8757 6.95569 36.7008 7.97569 36.5383C18.5119 33.2633 24.2345 24.0632 25.1982 13.7882ZM28.8145 25.1508C32.792 33.3758 38.8282 37.3507 45.9832 39.1507H45.982C41.5145 41.4882 37.4507 44.4133 35.2969 47.3508C34.4794 48.4633 33.7295 50.7007 33.0532 53.2132C32.687 50.8757 32.192 48.3882 31.5382 46.2632C30.7945 43.8382 29.7932 41.8258 28.6757 40.6258C26.5182 38.3133 23.8107 37.0258 20.8994 36.3883C24.3844 33.3008 27.027 29.4508 28.8145 25.1508Z" fill="#12141D"/>
</svg>
